<?xml version="1.0" encoding="utf-8"?>
<!-- Generator: Adobe Illustrator 19.0.0, SVG Export Plug-In . SVG Version: 6.00 Build 0)  -->
<svg version="1.1" id="Capa_1" xmlns="http://www.w3.org/2000/svg" xmlns:xlink="http://www.w3.org/1999/xlink" x="0px" y="0px"
	 viewBox="0 0 546.302673 156.816193" style="enable-background:new 0 0 546.302673 156.816193;" xml:space="preserve">
<style type="text/css">
	.st0{fill:#D53541;}
	.st1{fill:#1F1E21;}
</style>
<g>
	<g>
		<path class="st0" d="M324.999237,4.359189c0,0,0.507782,2.7246-0.320313,4.150401
			c-17.863281,31.4902-52.511688,92.769501-52.511688,92.769501c-0.468811,1.7285-0.625,2.865196,0,4.632797
			c2.550812,1.4356,5.273407-1.009796,7.662109-2.412102l4.146484-4.628899l55.238312-95.794899
			c1.898376-3.17,5.595703-3.4922,8.773376-2.5196c2.550812,0.7618,3.853516,4.4336,2.740204,7.1329l-53.970703,94.6875
			c-0.492188,0.947205-0.492188,2.232407-0.492188,3.535103c1.460999,2.519501,3.515717,0,4.980499-0.498001
			c19.9375-17.542999,23.935608-49.970699,52.968811-56.679699c8.466797-2.714901,20.765594,2.710899,27.152283-4.632801
			c6.867218-5.742199,7.355499-19.937498,18.820313-18.013699c2.617188,0.4258,2.871094,4.785101,1.453094,7.0117
			c-3.070313,4.751999-13.910095,4.453102-11.015594,12.6133c4.609406,6.3769,15.00589-2.095699,17.550781,7.181599
			c0,0,0.429718,4.277401-0.800781,6.529301c-9.093719,17.025402-15.156219,27.392597-25.226501,46.4883
			c-1.035217,1.9785,4.140594,0.556602,5.753906-0.498001c23.503876-15.550797,26.48819-52.845699,57.454987-57.796898
			c3.177795-0.513699,6.392609,0.482399,8.789093,3.037098c4.310516,7.494102,2.076202,17.880901-2.708984,24.580105
			c-2.550812,3.369095-6.080109,7.011696-10.703094,4.964798c-2.871124-1.289001-3.638702-4.642601-2.701202-7.337898
			c3.665985-7.046806,15.169891-10.859303,13.404297-19.966805c-1.269501-4.160099-6.490204-3.031197-8.449219-1.1269
			c-9.609375,9.310501-19.486298,29.541-28.738281,44.541c-0.949219,3.177704-1.445313,7.988304,0.468781,11.039101
			c1.605408,1.744102,3.847626,3.003899,6.087921,1.904297c34.935486-11.972694,41.802704-65.468796,84.257782-60.517597
			c3.021515,0.347599,6.880798-0.9571,9.257813,1.128902l-1.087891,1.122997
			c-12.140625,0.6348-23.652405,2.230499-31.945313,11.953201c-9.109406,12.9492-16.093811,26.663998-23.613312,40.238201
			c-1.093781,1.943398-0.189484,4.785202,1.890625,5.738297c8.082092,3.734406,14.457092-6.162102,19.195282-14.218697
			c9.164093-15.572304,22.464905-39.078201,22.464905-39.078201c2.080109-2.402302,5.595703-4.173801,8.466797-2.2402
			c3.099609,2.035198,3.046814,5.576199,1.927704,7.9785c0,0-13.855499,24.453098-21.875,38.294903
			c-1.585907,2.753899-0.957001,5.923897,0.488312,8.179695c0,0,1.574188,2.138702,3.01947,2.210999
			c15.35553,0.761703,27.484436-1.273499,42.156311,0.806602c5.089783,0.673798,8.449219,3.486298,10.683594,7.660202
			c0.80658,2.548798-0.789063,5.595695-3.5,6.519501c-7.972656,1.464798-9.023499-10.064499-16.781311-10.839806
			c-13.921875-1.347694-25.992188,0.791-42.558563-0.718796c-4.218719-0.365204-4.660126-6.005898-6.929718-8.861298
			c-6.429688,6.8554-16.558594,15.468697-26.332001,7.324196c-3.872986-3.251999-2.382782-8.925797-2.707001-13.691399
			l-1.121094-1.314499c-11.324188,9.746101-23.898499,22.212898-39.595703,15.826195
			c-4.341797-1.773399-5.091797-7.177696-7.646484-10.683594c-7.984406,5.761696-16.585907,17.054695-27.128906,9.892601
			c-7.027405-10.859406,4.144501-19.970703,7.972595-29.068405l15.31839-27.275398
			c0.644501-1.904301-0.794891-3.369099-2.212891-4.173801c-15.027313,2.548801-37.527313-6.855499-46.308594,11.039101
			c-7.175812,13.726498-16.589813,26.660099-21.054718,41.500004c-0.625,2.0019,0.332123,4.447197,2.226624,5.882797
			c6.792999,5.084,13.886688-9.408203,19.140594-15.150398c8.625-12.613304,14.199188-26.3535,18.847687-40.546902
			c2.726501-1.275402,4.136719,1.914101,5.253906,3.837898c1.929688,16.595699-4.773499,31.4492-14.832092,44.062504
			c-6.855408,7.972694-15.318298,12.910194-25.382813,11.781296c-4.285095-0.482498-7.337891-2.050797-10.398407-4.9356
			c-2.886688-2.710899-3.970673-6.845695-4.933594-10.673798h-1.433594c-6.222595,6.849602-13.085907,17.705101-23.457001,15.638702
			c-4.941406-0.189507-5.273499-8.789101-10.386688-6.048904c-4.320404,3.808601-9.580109,6.986404-15.644623,5.726601
			c-3.1875-0.966797-4.453094-3.822296-6.51947-6.210899c-5.457016,2.857399-10.546921,7.632797-17.585907,5.699203
			c-3.339905-1.246101-4.289108-4.775406-6.543015-7.134804c-7.335892,4.130898-14.835892,11.132797-24.093796,7.134804
			c-5.417892-3.164101-4.818298-9.546906-6.875-14.482407c-8.457001,6.191406-15.632797,18.525307-27.617096,15.625
			c-2.703201-0.630898-6.06839-3.164093-6.542999-6.357498c0,0-1.003906-4.654297,0.3125-7.056595
			c20.996109-38.388702,35.582001-63.939503,49.796906-90.029305c0.605392-1.0391-2.056702-1.4199-3.023514-0.6387
			l-13.413986,17.240299l-59.681702,81.568298c-2.876907,2.724602-6.548798,5.742203-10.697205,6.064499
			c-3.834,0.277306-6.851601-1.933594-8.931702-4.9375c-2.3769-4.466797-0.322296-9.8965,1.259804-14.212898
			c14.691399-28.095695,31.117195-55.390598,46.624992-83.164101c0.162109-1.7383,0.162109-4-1.933594-4.4629
			c-3.822296,0.146501-5.742203,4.6231-7.957001,7.1621l-53.320396,73.589897
			c-18.046799,20.136703-42.304604,33.685501-69.6054,25.732399c-13.095699-4.951195-28.037094-8.570297-36.890697-20.777298
			c-1.8632-2.591797-1.7382-6.537201,0.8008-9.095703c1.9336-3.355499,6.1133-2.9786,8.7891-2.710999
			c11.802705,1.240204,16.285099,18.818405,27.960899,24.101601c22.9571,9.244102,48.339901-1.449196,64.773499-19.462898
			l12.628899-14.701202L164.10083,5.810289c3.195313-3.1894,7.167908-4.3222,11.171906-5.2832
			c4.328094,0,9.101501,0.9805,10.367096,5.3028l-0.453094,5.4043l-50.597595,90.835899
			c-0.951202,1.757797-0.101608,4.369194,1.894501,4.955101c1.25,0.337898,2.285095,0.087898,3.195297-0.804703
			c0,0,51.550797-69.150406,75.039093-101.216797c3.5-4.7852,9.871109-5.1113,15-2.543
			c3.382797,2.3672,4.466797,6.4004,2.566406,9.8731c-20.339905,36.869099-49.824203,88.945305-49.824203,88.945305
			c-0.628998,1.884796-0.628998,4.472694,1.601501,5.746101c4.335999,2.447296,9.101608-4.798805,11.828094-8.783203
			c14.980515-18.707001,29.023514-44.8633,54.402405-49.507801c7.343689-0.9571,16.632813-1.7481,23.496094,0.806602
			c0,1.591797-2.089905,1.591797-3.515594,1.445297c-10.058594-0.332001-19.589905,1.787102-27.621094,8.4375
			c-12.451202,10.3848-20.425812,25.859402-27.144608,40.228504c-1.210892,2.617195-1.757797,5.923897,0.019608,8.472694
			c1.900299,2.871101,5.734299,1.757805,7.960892,0.306602c16.121094-15.302704,23.632813-35.570297,34.960892-53.6367
			c1.765717-3.013699,5.589905-2.226501,8.314514-1.900402c3.076202,0.347702,3.339783,4.625,2.376892,7.349602
			c0,0-13.613205,24.335999-22.187485,39.902397c-1.230408,2.181602-1.433609,4.306602-0.476517,6.380806
			c0.644516,1.744194,2.480408,1.347694,4.05661,1.070396c3.509796-0.601601,6.621094-6.318398,6.621094-6.318398
			s41.040985-71.226601,56.373108-98.203102c1.074188-1.8321,2.835876-2.7735,4.622986-3.0176
			C320.936737-0.322511,324.530518,1.165789,324.999237,4.359189"/>
		<path class="st1" d="M124.262939,137.128693c0.175797-0.029297,0.279297-0.029297,0.279297-0.029297
			c0.41011,0,0.996109,0.013687,1.757797,0.058594c0.410202,0.013702,0.730507,0.013702,0.886703,0.013702
			c0.226608,0,0.695297-0.013702,1.412094-0.072296l2.611404-0.132813c0.695297-0.058594,1.476501-0.072296,2.414001-0.072296
			c1.582001,0,2.859406,0.205109,3.835999,0.673904c0.9375,0.423798,1.656204,1.142502,2.179596,2.138596
			c0.527405,0.966797,0.794998,1.933609,0.794998,2.871109c0,1.625-0.591797,3.001999-1.712891,4.173889
			c-1.132797,1.158203-2.652405,1.7285-4.527405,1.7285c-0.550797,0-0.992188-0.042999-1.347595-0.160202
			c-0.367203-0.1035-0.765701-0.322296-1.230499-0.601593c-0.179703-0.160095-0.308609-0.277298-0.351608-0.439407
			c0.042999-0.042999,0.101608-0.101593,0.171906-0.13089c0.150406,0,0.296906,0.029297,0.468796,0.087891
			c0.332001,0.117203,0.76561,0.205109,1.296814,0.205109c0.800797,0,1.574295-0.205109,2.304688-0.644501
			c0.695313-0.367203,1.261703-0.9375,1.621109-1.656296c0.376999-0.746109,0.54689-1.537109,0.54689-2.357407
			c0-0.761703-0.195297-1.568405-0.554688-2.300797c-0.429703-0.761703-0.917999-1.39061-1.542999-1.816406
			c-0.371109-0.263702-0.91011-0.482391-1.652313-0.644501c-0.75589-0.175797-1.328094-0.248093-1.726593-0.248093
			c-1.269501,0-2.011703,0.087891-2.251907,0.263702v0.205093l0.025406,1.742203l-0.011703,0.292892
			c-0.013702,0.308609-0.013702,0.718811-0.013702,1.289108c0,2.080093,0.013702,3.369095,0.1035,3.8965v0.849594l0.183609,7.001999
			c0,0.1035-0.019501,0.292908-0.046906,0.585907c-0.031204,0.25-0.035095,0.527298-0.035095,0.703094
			c0,0.498108,0.035095,0.865204,0.117096,1.128906c0.263702,0.072296,0.960999,0.23439,2.164093,0.482391
			c0.527405,0.1465,0.839905,0.234406,0.886703,0.25c0.084,0.029297,0.167999,0.087906,0.214905,0.205109
			c-0.042999,0.1465-0.078201,0.23439-0.160202,0.27739c-0.0625,0.058609-0.205093,0.117203-0.386703,0.117203
			c-0.125,0-0.404297-0.058594-0.847702-0.117203c-0.904297-0.087891-1.578094-0.13089-2.082001-0.13089l-2.718697,0.101593
			l-1.597694-0.042999c-0.078094,0-0.390602,0-0.886703,0.029297v-0.38089l1.992203-0.41011
			c0.316406-0.087891,0.5215-0.162094,0.580002-0.263687c0.117195-0.132813,0.175797-0.425812,0.175797-0.849609
			c0-0.087891,0-0.279297,0-0.572296c0.005898-0.218704,0.005898-0.527298,0.005898-0.892502
			c0-1.216797-0.058601-3.794998-0.156288-7.720703c-0.031212-1.845795-0.039001-3.720795-0.039001-5.60939v-0.279312
			c0-0.732391-0.128906-1.201187-0.343811-1.376999c-0.371094-0.335892-1.328094-0.615189-2.839798-0.820297
			c-0.054703-0.101501-0.084-0.218704-0.084-0.277298C124.145737,137.363083,124.17894,137.275192,124.262939,137.128693"/>
		<path class="st1" d="M165.819534,147.044693c1.093811,0.044891,2.355499,0.058594,3.742203,0.058594
			c0.820297,0,1.511703-0.013702,2.1035-0.058594c-0.1035-0.394501-0.240204-0.761703-0.337891-1.09761
			c-0.683609-1.816391-1.03511-2.783188-1.121109-2.959l-1.386703-3.560593l-0.167892-0.263596
			c-0.033203,0.132797-0.281296,0.660095-0.664108,1.568298c-0.658188,1.625-1.126999,2.841797-1.414093,3.720703
			c-0.136703,0.394592-0.26561,0.804688-0.421799,1.201187c-0.140701,0.380905-0.222702,0.6875-0.257904,0.834
			c-0.035095,0.162109-0.093704,0.308609-0.146393,0.468704L165.819534,147.044693z M158.487534,156.214584
			c0.156204-0.058594,0.287109-0.117096,0.398407-0.117096h0.343796c0.085907,0,0.195297,0,0.378906,0
			c0.781189-0.072296,1.230499-0.130905,1.406189-0.234406c0.343811-0.205093,0.644608-0.52739,0.898514-0.996094
			c0.552689-1.054703,1.125-2.519501,1.816391-4.453094c0.3125-0.892609,0.507797-1.44931,0.578094-1.625
			c0.261703-0.615311,0.51561-1.289108,0.736313-1.933609l1.451202-4.029297c0.21489-0.658203,0.769485-2.109406,1.60939-4.365295
			c0.234406-0.599609,0.484406-1.361298,0.80661-2.28511l0.423889-0.058594l0.558502,0.029297
			c0.429703,0.865204,0.834,1.816406,1.179703,2.8125c0.15239,0.513702,0.474594,1.289001,0.884796,2.359406l2.337906,6.298798
			l1.230499,3.427704c0.650299,1.947296,1.105392,3.119202,1.289001,3.574188
			c0.207092,0.453201,0.386703,0.746109,0.566391,0.863312c0.054703,0.058594,0.253906,0.162094,0.597702,0.205093
			c0.30661,0.1035,0.535095,0.132797,0.683609,0.175797c0.472595,0.1465,0.800797,0.25,0.976486,0.322205
			c0.027405,0.162201,0.058609,0.234406,0.058609,0.279297c0,0.058609-0.031204,0.130905-0.050705,0.234406
			c-0.320389,0.029297-0.541107,0.029297-0.6875,0.029297c-0.523499,0-1.441498-0.029297-2.738297-0.044891l-1.5625-0.029312
			l-1.828201,0.029312c-0.144501,0-0.273407-0.013702-0.378891-0.029312c-0.142517,0-0.253906-0.029297-0.332001-0.029297h-0.343704
			c-0.111404,0-0.222702-0.042999-0.300812-0.101593c0-0.132797,0.019516-0.263611,0.072205-0.41011
			c0.117203-0.044891,0.228607-0.087891,0.322311-0.1035l1.625-0.101593c0.425797-0.015594,0.73439-0.087906,0.949188-0.162094
			c0.046906-0.189514,0.097702-0.322311,0.097702-0.423813c0-0.191391-0.148499-0.644592-0.410202-1.42189
			c-0.175797-0.511703-0.363297-0.980499-0.488297-1.449203c-0.132797-0.468796-0.683502-2.0215-1.626907-4.556702
			c-0.423798-0.087906-0.791-0.101501-1.099594-0.101501l-3.289093,0.013596l-0.957001-0.013596
			c-0.363312,0-0.742203,0.029297-1.158203,0.087906c-0.123108,0.306595-0.209,0.511703-0.263702,0.658203l-1.347595,4.218689
			c-0.582108,1.611298-0.863297,2.490204-0.863297,2.666c0,0.058609,0.058594,0.234406,0.144485,0.425812
			c0.195313,0.087891,0.507813,0.160187,0.871109,0.175797l2.070297,0.160095
			c0.117203,0.117203,0.179703,0.191498,0.179703,0.279297c0,0.058609-0.035202,0.117203-0.0625,0.234406
			c-0.460907,0-0.792999,0-1.050797,0c-0.820297,0-1.761703-0.015594-2.855408-0.074203
			c-0.488297,0-0.865295-0.029297-1.070404-0.029297c-0.218689,0-0.585892,0.029297-1.117096,0.029297
			c-0.347702,0.029297-0.597702,0.044907-0.742203,0.044907c-0.25,0-0.578186-0.01561-0.953186-0.044907v-0.101593
			C158.452347,156.44899,158.468033,156.361084,158.487534,156.214584"/>
		<path class="st1" d="M211.944534,137.80249c0.078201,0.6875,0.091812,1.054703,0.091812,1.171906l-0.052704,1.347687
			c-0.005905,0.585907-0.031296,0.980408-0.058609,1.126907c-0.097687,0.015594-0.167999,0.058594-0.167999,0.058594
			l-0.214798-0.042999c-0.33989-1.392502-0.878891-2.460892-1.648499-3.121094
			c-0.787109-0.658203-1.738205-0.966705-2.851501-0.966705c-1.183594,0-2.128891,0.308502-2.902405,0.966705
			c-0.730392,0.660202-1.093689,1.421906-1.093689,2.2715c0,0.6875,0.253891,1.289093,0.773392,1.845703
			c0.527405,0.541092,1.855499,1.361389,4.003906,2.474594c1.634796,0.835999,2.806702,1.523499,3.515701,2.080109
			c0.691391,0.52739,1.238205,1.158188,1.582001,1.845688c0.371094,0.718811,0.54689,1.509811,0.54689,2.373108
			c0,1.084-0.285202,2.154297-0.871094,3.091797c-0.560593,0.951096-1.308594,1.683594-2.285202,2.181595
			c-0.941391,0.484406-2.226501,0.718811-3.789001,0.718811c-1.406296,0-2.718796-0.220703-4.003998-0.660202
			c-0.722595-0.263702-1.199203-0.468704-1.355392-0.628906c-0.156311-0.191391-0.246109-0.337891-0.246109-0.513702
			c0-0.130798,0.019501-0.277298,0.044907-0.468689c0.1465-1.185608,0.201202-2.181702,0.201202-2.959
			c0.04689-0.468811,0.062485-0.761703,0.144485-0.849609c0.011703-0.072296,0.07811-0.101593,0.210907-0.101593
			c0.087891,0,0.17189,0.029297,0.199295,0.101593c0.07811,0.074203,0.123001,0.205109,0.128906,0.380798
			c0.125,1.246109,0.691406,2.373108,1.777298,3.369202c1.029297,0.996109,2.207001,1.480499,3.519501,1.480499
			c0.791092,0,1.578201-0.191498,2.25589-0.513702c0.658203-0.322296,1.177719-0.804688,1.582001-1.435593
			c0.377014-0.644501,0.560608-1.259705,0.560608-1.875c0-0.820297-0.281296-1.582001-0.867203-2.285095
			c-0.578094-0.6875-1.744095-1.464905-3.507797-2.386703c-1.765594-0.923904-2.910202-1.568405-3.445297-2.007904
			c-0.839905-0.6875-1.484406-1.419891-1.925797-2.167892c-0.320313-0.599609-0.476608-1.289108-0.476608-2.064499
			c0-1.435501,0.554703-2.636703,1.6875-3.61911c1.132797-0.980499,2.617203-1.4785,4.542999-1.4785
			c1.023407,0,1.914108,0.101501,2.695313,0.365204C210.780533,137.099396,211.358643,137.376785,211.944534,137.80249"/>
		<path class="st1" d="M235.128128,139.384583l0.632813-2.285187c0.039093-0.337906,0.08989-0.513702,0.175797-0.615204
			c0.078094-0.087906,0.167999-0.132797,0.240204-0.132797c0.181686,0,0.384796,0.234299,0.63089,0.660095
			c0.175797,0.322296,0.320297,0.511703,0.429703,0.615295c0.105499,0.072205,0.261703,0.146408,0.476608,0.175705
			l0.162094-0.029297l0.669891,0.072296l3.607407,0.015594h4.283203h1.25l2.40239-0.029297
			c0.091812,0,0.20311,0.013702,0.359314,0.029297c0.703186,0.058609,1.132797,0.101608,1.289093,0.101608
			c0.167999,0,0.292999-0.072296,0.371094-0.160202c0.039108-0.029297,0.1875-0.3965,0.507813-1.041
			c0.148392-0.263702,0.304688-0.410095,0.488297-0.410095c0.09761,0,0.1875,0.029297,0.324203,0.044891
			c0.027298,0.218704,0.058594,0.394501,0.058594,0.570297l-0.011703,0.601608l0.011703,1.302704
			c0,0.322296-0.031296,1.31839-0.058594,3.033188c0,0.130905-0.011703,0.234406-0.07811,0.30661
			c-0.097702,0.074295-0.195297,0.132797-0.285202,0.132797c-0.072189,0-0.144501-0.058502-0.214798-0.162109
			c-0.066391-0.042892-0.136703-0.306595-0.23439-0.673798c-0.209-0.92189-0.468704-1.595688-0.769501-1.962891
			c-0.214905-0.248001-0.494202-0.45311-0.859406-0.55661c-0.3965-0.117188-1.320297-0.160187-2.785187-0.160187h-2.57811
			c-0.027298,0.394592-0.039001,0.761688-0.039001,1.097687l0.117111,9.566406c0,0.365204-0.007813,1.084-0.039001,2.138702
			l0.011688,2.05069l-0.011688,1.127014c0,0.351593,0.039001,0.615189,0.167892,0.761688
			c0.13089,0.162109,0.453201,0.292999,1.003998,0.455109c0.943298,0.23439,1.574203,0.365204,1.880798,0.423798
			c0.201202,0.015594,0.345703,0.074203,0.494202,0.117203v0.498093l-2.199295-0.117203
			c-1.191406,0-2.07811-0.013687-2.695313-0.042999l-2.246094,0.101608l-1.640594,0.087799
			c-0.472702,0-0.736313,0-0.839798-0.013596l-0.203201-0.087906c0.013687-0.234406,0.066406-0.410202,0.13089-0.468796
			c0.072311-0.058609,0.263702-0.1035,0.55661-0.146408c0.439499-0.074295,0.9375-0.191498,1.523499-0.322296
			c0.601501-0.162094,0.972595-0.337906,1.156189-0.498108c0.097702-0.087891,0.1875-0.263596,0.207108-0.454987
			c0.117111-0.468811,0.144501-1.347702,0.144501-2.650406v-2.607498l-0.072296-5.712799l-0.072205-1.216797v-4.085999h-2.447296
			c-1.490204,0-2.376999,0.072296-2.701202,0.248093c-0.488297,0.292892-1.25,1.113297-2.246109,2.447205
			c-0.320282,0.511795-0.589798,0.761795-0.85939,0.761795l-0.117096-0.029297
			c-0.052795-0.07431-0.082108-0.117203-0.082108-0.162201c0-0.117096,0.093796-0.482407,0.269608-1.126907
			C234.97583,140.204895,235.089142,139.67749,235.128128,139.384583"/>
		<path class="st1" d="M274.452332,156.493881c0.103607-0.103485,0.167999-0.132797,0.253906-0.146393
			c0.175781-0.074295,0.480499-0.132904,0.917999-0.162201c0.968811-0.029297,1.593811-0.130798,1.816406-0.248001
			c0.148499-0.220703,0.195282-0.498001,0.195282-0.865204l-0.007782-1.097687l0.007782-3.912109l-0.019501-1.800797
			l0.011719-3.867203l-0.058624-4.380798c0-1.039093-0.083984-1.654297-0.207001-1.7715
			c-0.195282-0.205093-0.730499-0.308594-1.628876-0.351593c-0.416016,0-0.753906-0.029312-1.031311-0.087906
			c-0.146393-0.058609-0.230408-0.175705-0.230408-0.279297c0-0.072205,0.050812-0.16011,0.089813-0.277298
			c0.117188-0.044907,0.183594-0.087906,0.183594-0.087906c0.207001,0,0.382813,0,0.572296,0.013702
			c0.630798,0.074203,1.24411,0.1035,1.900421,0.1035l1.117188-0.029297l2.710907,0.058594
			c1.355499,0,2.410095-0.029297,3.152283-0.029297c0.757813-0.044907,1.269623-0.058609,1.542999-0.058609
			c0.240204,0,0.820313,0.013702,1.738312,0.058609h2.193298l0.263702,0.029297l1.265594-0.029297l0.156311,0.058594
			c0.042999,0.072205,0.085876,0.175797,0.105499,0.277298c0,0.132797-0.019623,0.351608-0.0625,0.630905
			c-0.0625,0.306595-0.082123,0.482407-0.082123,0.570297c0,1.070297,0.039124,1.962906,0.125,2.695297
			c-0.042877,0.058609-0.042877,0.1035-0.125,0.132813c-0.093689,0-0.195282-0.029312-0.273376-0.044907
			c-0.128906-0.205093-0.253906-0.556595-0.464905-1.039108c-0.191406-0.468689-0.472595-1.070297-0.835907-1.699188
			c-0.253906-0.439407-0.468689-0.689407-0.613312-0.777298c-0.148376-0.087906-0.429688-0.101608-0.894501-0.101608
			c-0.08197,0-0.55658-0.015594-1.402283-0.044891c-0.222717,0-0.414093-0.013702-0.648499-0.013702l-4.390594,0.072296h-0.351624
			c-0.574188,0-0.925781,0.087906-1.042877,0.220703c-0.162201,0.277298-0.25,0.980499-0.25,2.181595
			c0,0.1035,0.035095,1.334,0.082001,3.691406v2.125c0.097595,0.013702,0.240204,0.029297,0.363281,0.029297h0.261719
			c0.1875,0,0.441376,0,0.761688,0.029297c0.552704,0.013702,0.904297,0.042999,1.080109,0.042999
			c0.117188,0,0.220703-0.029297,0.318298-0.029297c1.113281-0.058594,2.527405-0.058594,4.277405-0.058594
			c0.531189-0.101608,0.839783-0.189407,0.941376-0.322311c0.171906-0.205002,0.257813-0.673798,0.35553-1.449188
			c0.070282-0.791,0.253876-1.230408,0.523376-1.318314c0.121094,0,0.238312,0.013611,0.347717,0.072205
			c0.033203,0.074203,0.033203,0.162094,0.033203,0.234406c0,0.087891,0,0.175797-0.033203,0.351593
			c-0.054718,0.380798-0.089905,1.539001-0.089905,3.560501c0,0.527405,0.035187,1.126999,0.117188,1.787109
			c0.035217,0.673889,0.093811,1.009796,0.093811,1.06839c0,0.058609-0.054688,0.191406-0.0625,0.351501
			c-0.084015,0.044998-0.148499,0.058594-0.148499,0.058594h-0.136719c-0.183594-0.292892-0.339783-0.746094-0.507782-1.331985
			c-0.281311-1.025406-0.550812-1.685501-0.847717-1.933609c-0.285095-0.263702-0.773376-0.3965-1.406189-0.3965
			c-0.128906,0-0.406311,0-0.773499,0c-0.390594,0.029297-0.945313,0.044998-1.718689,0.044998h-0.976624
			c-1.413971,0-2.351471,0.042908-2.773376,0.087799l-0.019501,0.51181l0.019501,2.8125l-0.019501,1.787094l0.019501,1.744095
			c0,1.039108,0.064392,1.654312,0.167999,1.800812c0.195282,0.263687,0.566406,0.351593,1.140594,0.351593l0.929688-0.029297
			c0.105408,0,0.417908,0.029297,0.984314,0.029297c0.527405,0.015594,1.230499,0.015594,2.056702,0.015594
			c1.966797,0,3.281189-0.058594,3.93158-0.25c0.664124-0.175797,1.195313-0.439499,1.621124-0.908188
			c0.417999-0.410202,0.957092-1.347702,1.589905-2.783203c0.210876-0.410202,0.410095-0.628906,0.597595-0.628906
			c0.082092,0,0.183594,0.058609,0.287079,0.1465c-0.267487,0.996002-0.454987,1.669907-0.482391,1.992096
			c-0.109406,0.716812-0.191406,1.44931-0.207001,2.168015c0,0.335892-0.066406,0.644485-0.248108,0.849594h-0.337891
			l-4.296783,0.058594l-1.941406-0.029297l-4.582123,0.087906h-1.882782c-0.230499,0-0.460907,0-0.664001,0
			c-1.847717,0.087891-3.175812,0.117203-4.07431,0.117203c-0.144501,0-0.261688-0.029312-0.30069-0.074203
			c-0.058594-0.042999-0.084015-0.130905-0.084015-0.205109L274.452332,156.493881z"/>
		<path class="st1" d="M314.257019,156.816193c0.019623-0.1465,0.058624-0.292999,0.117218-0.425797
			c0.8125-0.218704,1.578094-0.335907,2.343781-0.423813c0.48822-0.015594,0.816406-0.1465,0.949219-0.322296
			c0.117188-0.162094,0.183594-0.644501,0.214783-1.494095l0.105499-4.029297l-0.046875-2.753906l0.046875-3.617203v-0.923798
			c0.015625-2.197296,0-3.5-0.058594-4.056702c0-0.1035-0.042999-0.234299-0.105499-0.425797
			c-0.285095-0.130798-0.49408-0.189407-0.67569-0.263596c-0.164093-0.029312-0.984406-0.160202-2.402405-0.410202
			c-0.023407-0.130798-0.058594-0.218704-0.058594-0.263702c0-0.042908,0.035187-0.130798,0.058594-0.248001
			c0.195313,0,0.5,0.013702,0.94339,0.058594l2.337921,0.058609l1.359283,0.042999l0.375-0.013702
			c0,0,0.205109,0.013702,0.464905,0.029297c0.593689,0,0.941406,0,1.035095-0.015594l1.230499-0.101608
			c0.843811,0,1.429718,0.029312,1.752014,0.058609c0,0.175797-0.052795,0.394501-0.091797,0.585892
			c-0.109406,0.029312-0.670013,0.058609-1.593811,0.101608c-0.964813,0.015594-1.511688,0.087891-1.654297,0.191391
			c-0.234406,0.101608-0.351593,0.511703-0.351593,1.214798c0,0.162109-0.025299,0.484406-0.025299,1.01181v0.892502v2.828201
			v0.980392l0.039001,5.084l-0.039001,4.335999v0.9375c0,0.30661,0.054596,0.511703,0.167877,0.570297
			c0.242218,0,1.015717,0.01561,2.246124,0.01561h1.042999l2.675781-0.074203
			c0.675812-0.013702,1.171814-0.101593,1.476501-0.218796c0.296906-0.087906,0.769592-0.455109,1.468811-1.025406
			c0.425781-0.380798,0.761688-0.761703,0.996094-1.158203c0.035095-0.058594,0.146515-0.189392,0.257813-0.335892
			c0.207001-0.279297,0.460876-0.820297,0.781189-1.611298h0.5c-0.05069,0.380798-0.109314,0.716797-0.1875,1.054596
			c-0.296814,1.435593-0.527313,2.621094-0.632813,3.574295c0,0.234299-0.019501,0.423798-0.044891,0.585907l-5.736298-0.162109
			c-4.953094,0-7.871094,0.044907-8.781311,0.132813c-0.273376,0.029297-0.593689,0.029297-0.898376,0.029297H314.257019z"/>
		<path class="st1" d="M352.655518,156.493881c0.093719-0.103485,0.167908-0.132797,0.253906-0.146393
			c0.167908-0.074295,0.468719-0.132904,0.894501-0.162201c0.966797-0.029297,1.605499-0.130798,1.8125-0.248001
			c0.175812-0.220703,0.222717-0.498001,0.222717-0.865204l-0.007904-1.097687l0.007904-3.912109l-0.027405-1.800797
			l0.019501-3.867203l-0.070313-4.380798c-0.019501-1.039093-0.097595-1.654297-0.195282-1.7715
			c-0.179718-0.205093-0.722626-0.308594-1.648407-0.351593c-0.402405,0-0.742218-0.029312-1.027405-0.087906
			c-0.125-0.058609-0.199188-0.175705-0.199188-0.279297c0-0.072205,0.015594-0.16011,0.074188-0.277298
			c0.101593-0.044907,0.164093-0.087906,0.253906-0.087906c0.140686,0,0.3125,0,0.521484,0.013702
			c0.591797,0.074203,1.224609,0.1035,1.869202,0.1035l1.125-0.029297l2.703094,0.058594
			c1.347717,0,2.414124-0.029297,3.156219-0.029297c0.76178-0.044907,1.289093-0.058609,1.542999-0.058609
			c0.214905,0,0.808594,0.013702,1.765594,0.058609h2.140686l0.30072,0.029297l1.242188-0.029297l0.156311,0.058594
			c0.052704,0.072205,0.111298,0.175797,0.111298,0.277298c0,0.132797-0.025391,0.351608-0.084015,0.630905
			c-0.039001,0.306595-0.058594,0.482407-0.058594,0.570297c0,1.070297,0.039093,1.962906,0.117218,2.695297
			c-0.033203,0.058609-0.058624,0.1035-0.097626,0.132813c-0.125,0-0.222687-0.029312-0.300781-0.044907
			c-0.117218-0.205093-0.253906-0.556595-0.449219-1.039108c-0.167999-0.468689-0.474579-1.070297-0.839874-1.699188
			c-0.273407-0.439407-0.468719-0.689407-0.625-0.777298c-0.117218-0.087906-0.421906-0.101608-0.884705-0.101608
			c-0.11142,0-0.541107-0.015594-1.377014-0.044891c-0.234406,0-0.464783-0.013702-0.673798-0.013702l-4.369202,0.072296h-0.390594
			c-0.572296,0-0.898407,0.087906-1.027313,0.220703c-0.144592,0.277298-0.248077,0.980499-0.248077,2.181595
			c0,0.1035,0.029297,1.334,0.083984,3.691406v2.125c0.117218,0.013702,0.242218,0.029297,0.359406,0.029297h0.259705
			c0.181702,0,0.435608,0,0.791107,0.029297c0.523376,0.013702,0.86319,0.042999,1.054596,0.042999
			c0.113281,0,0.218781-0.029297,0.316498-0.029297c1.11319-0.058594,2.539001-0.058594,4.269501-0.058594
			c0.527283-0.101608,0.839783-0.189407,0.945282-0.322311c0.156219-0.205002,0.253906-0.673798,0.351624-1.449188
			c0.070282-0.791,0.246094-1.230408,0.519501-1.318314c0.130798,0,0.273376,0.013611,0.365204,0.072205
			c0.00589,0.074203,0.033173,0.162094,0.033173,0.234406c0,0.087891-0.027283,0.175797-0.033173,0.351593
			c-0.052704,0.380798-0.084015,1.539001-0.084015,3.560501c0,0.527405,0.039093,1.126999,0.089905,1.787109
			c0.066406,0.673889,0.082001,1.009796,0.082001,1.06839c0,0.058609-0.015594,0.191406-0.054718,0.351501
			c-0.078094,0.044998-0.121094,0.058594-0.121094,0.058594h-0.171783c-0.164124-0.292892-0.300812-0.746094-0.472717-1.331985
			c-0.257782-1.025406-0.550781-1.685501-0.843689-1.933609c-0.292999-0.263702-0.773499-0.3965-1.406311-0.3965
			c-0.156189,0-0.415985,0-0.796906,0c-0.375,0.029297-0.941376,0.044998-1.675781,0.044998h-1.003906
			c-1.421814,0-2.355408,0.042908-2.773407,0.087799l-0.050781,0.51181l0.050781,2.8125l-0.050781,1.787094l0.050781,1.744095
			c0,1.039108,0.058594,1.654312,0.164093,1.800812c0.195313,0.263687,0.558624,0.351593,1.158203,0.351593l0.93161-0.029297
			c0,0,0.390594,0.029297,0.968811,0.029297c0.554596,0.015594,1.230377,0.015594,2.05069,0.015594
			c1.960999,0,3.300812-0.058594,3.953186-0.25c0.636719-0.175797,1.183624-0.439499,1.601501-0.908188
			c0.425812-0.410202,0.968811-1.347702,1.582123-2.783203c0.214783-0.410202,0.402283-0.628906,0.605377-0.628906
			c0.089905,0,0.1875,0.058609,0.3125,0.1465c-0.287079,0.996002-0.462891,1.669907-0.515594,1.992096
			c-0.097687,0.716812-0.1875,1.44931-0.1875,2.168015c0,0.335892-0.082001,0.644485-0.253906,0.849594h-0.326202
			l-4.330078,0.058594l-1.910095-0.029297l-4.613312,0.087906h-1.861298c-0.234406,0-0.468811,0-0.650391,0
			c-1.863312,0.087891-3.210907,0.117203-4.089905,0.117203c-0.128906,0-0.253906-0.029312-0.3125-0.074203
			c-0.05072-0.042999-0.097595-0.130905-0.097595-0.205109L352.655518,156.493881z"/>
		<path class="st1" d="M398.862518,146.224396c0.269501,0,0.468719,0,0.601624,0c0.746094,0,1.601501-0.087906,2.558594-0.248001
			c0.671783-0.1465,1.204987-0.337906,1.621002-0.660202c0.417999-0.30661,0.789093-0.746109,1.054688-1.347702
			c0.300812-0.570297,0.433594-1.185501,0.433594-1.816406c0-0.703094-0.230377-1.435501-0.667877-2.240189
			c-0.351624-0.55661-0.929718-1.054703-1.705109-1.451202c-0.806702-0.41011-1.757813-0.599609-2.900391-0.599609
			c-0.269501,0-0.621124,0-1.084015,0.029312c-0.013702,0.52739-0.064392,0.966797-0.064392,1.21489l0.089783,2.916
			l-0.025391,1.142609C398.774628,143.968491,398.807831,144.980286,398.862518,146.224396 M393.149628,156.230286
			c1.498108-0.162094,2.343811-0.263702,2.533203-0.367203c0.128906-0.042999,0.234406-0.205093,0.367188-0.439499v-0.160095
			c0-0.279297,0.035217-1.171906,0.113312-2.769608c0.033203-0.482391,0.033203-0.908188,0.033203-1.331985l-0.044891-1.816406
			l0.044891-2.080093l-0.033203-3.867203l0.033203-2.740204c0-1.171906-0.103516-1.859406-0.287109-2.123001
			c-0.181702-0.279297-0.683594-0.455093-1.445282-0.556702c-0.800812-0.117203-1.242218-0.175797-1.328217-0.234406
			c-0.097595-0.058594-0.109283-0.117096-0.109283-0.234299c0-0.058594,0.005798-0.175797,0.05069-0.292999
			c0.072296-0.087891,0.320404-0.117188,0.6875-0.117188c0,0,0.210999-0.044907,0.425812-0.058609
			c0.218781-0.029297,0.457092-0.029297,0.671875-0.029297h1.230499l4.054718-0.058594
			c2.246002,0,3.855408,0.1465,4.785095,0.498093c0.906311,0.351501,1.634796,0.908203,2.1875,1.7285
			c0.531311,0.804703,0.808594,1.699203,0.808594,2.679703c0,1.890594-0.980499,3.296799-2.949188,4.322189
			c-0.332001,0.160202-0.609406,0.306702-0.808594,0.453201c0.359375,0.732407,0.843689,1.626907,1.458984,2.652313
			l1.939392,3.33989c0.785217,1.214798,1.328217,1.992096,1.605499,2.32811c0.296906,0.292892,0.660217,0.527298,1.109406,0.761688
			c0.398407,0.191406,1.121094,0.380905,2.142517,0.572311c0.00589,0.101501,0.00589,0.17569,0.00589,0.234299
			c0,0.072296,0,0.160202-0.00589,0.263702c-1.392517,0-3.052704,0.029297-4.947205,0.029297
			c-0.121094,0-0.3125-0.029297-0.546906-0.029297c-0.730499-1.406204-1.566406-2.945313-2.5625-4.615204l-2.25589-4.173904
			c-0.337799-0.396393-0.580017-0.660095-0.775299-0.761703c-0.214905-0.132797-0.455109-0.1465-0.781311-0.1465h-1.320313
			h-0.429688c-0.033203,0.292999-0.039093,0.980499-0.039093,1.962906v5.257797
			c-0.007813,0.191498,0.031281,0.468796,0.128998,0.820404c0.078094,0.191391,0.234283,0.337799,0.429596,0.468704
			c0.175812,0.117188,0.76181,0.292999,1.738312,0.513687l0.605499,0.16011c0.085876,0.103592,0.105499,0.25,0.105499,0.425797
			c-0.253906,0.058594-0.453217,0.087906-0.570404,0.087906c-0.921814,0-1.558502-0.029312-1.9375-0.058609
			c-0.195313,0-0.347595,0-0.49411,0l-2.076202,0.029297l-2.019501-0.029297c-0.097687,0-0.539093,0.029297-1.386688,0.058609
			l-0.31842-0.058609l-0.033173-0.162094C392.940643,156.464584,393.026642,156.376785,393.149628,156.230286"/>
		<path class="st1" d="M435.096924,135.150192l1.933594-2.753906c0.539001-0.791,1.093719-1.390594,1.632813-1.7285
			c0.218689-0.160202,0.468689-0.218796,0.742188-0.218796c0.261719,0,0.472626,0.058594,0.625,0.218796
			c0.195313,0.132797,0.253906,0.322205,0.253906,0.542908c0,0.175797-0.050781,0.394592-0.1875,0.599594
			c-0.164093,0.220703-0.507782,0.513702-1.039093,0.878998l-3.609406,2.460907l-0.164001,0.015594L435.096924,135.150192z
			 M432.378143,156.214584c0.210999-0.058594,0.445282-0.130798,0.699188-0.146393
			c1.542999-0.101608,2.435608-0.306702,2.644592-0.585999c0.259705-0.248001,0.363312-1.582001,0.363312-3.925812
			l-0.019592-1.611298v-1.654297l-0.078125-1.890594l0.058624-1.084l-0.031311-1.214798v-1.406311l-0.027313-0.615189
			l0.027313-0.806702c0-0.16011,0.031311-0.394501,0.031311-0.658203c0-0.615204-0.058624-1.289001-0.117218-2.0215
			c-0.019501-0.132797-0.093689-0.263596-0.152283-0.425705c-0.367218-0.189499-0.992218-0.306702-1.832123-0.365295
			c-0.847595-0.074203-1.332001-0.175705-1.449188-0.234299c-0.074188-0.058609-0.113312-0.205109-0.117188-0.468796h1.259796
			l4.087891,0.072296c1.0625,0,2.441406-0.042999,4.1875-0.072296c0,0.1465-0.027405,0.306595-0.039093,0.468796
			c-0.195313,0.042892-0.546906,0.101501-1.035095,0.160095c-0.960999,0.1035-1.546906,0.234406-1.781311,0.308609
			c-0.117188,0.042999-0.205109,0.13089-0.269501,0.263687c-0.111389,0.205109-0.164093,0.55661-0.199188,1.039001
			l-0.07431,1.962906l0.070404,6.826202v2.724594c-0.019592,0.835999-0.050812,1.406296-0.050812,1.7285
			c0,1.142609,0.050812,1.861404,0.097595,2.197296c0.074219,0.322311,0.162109,0.542999,0.308624,0.689407
			c0.117188,0.130905,0.351593,0.248093,0.660187,0.322296c0.482391,0.101608,0.839813,0.175797,1.126892,0.175797
			c0.556702,0.042999,0.931702,0.101608,1.06842,0.218704c0.039093,0.175797,0.070282,0.279297,0.070282,0.367203v0.130905
			c-0.9375,0.015594-1.632782,0.044891-2.082001,0.044891c-0.257782,0-0.710999-0.029297-1.367188-0.044891l-2.113312,0.015594
			h-3.603485h-0.292999L432.378143,156.214584z"/>
		<path class="st1" d="M469.776642,147.044693c1.093689,0.044891,2.351501,0.058594,3.73819,0.058594
			c0.8125,0,1.496094-0.013702,2.109406-0.058594c-0.097595-0.394501-0.238312-0.761703-0.351501-1.09761
			c-0.683594-1.816391-1.029297-2.783188-1.101593-2.959l-1.378906-3.560593l-0.160217-0.263596
			c-0.074188,0.132797-0.308594,0.660095-0.679688,1.568298c-0.667908,1.625-1.136688,2.841797-1.429596,3.720703
			c-0.132904,0.394592-0.289093,0.804688-0.410217,1.201187c-0.146484,0.380905-0.257782,0.6875-0.289093,0.834
			c-0.007782,0.162109-0.0625,0.308609-0.136688,0.468704L469.776642,147.044693z M462.440643,156.214584
			c0.156281-0.058594,0.289093-0.117096,0.382782-0.117096h0.345703c0.091797,0,0.220703,0,0.384796,0
			c0.800812-0.072296,1.269501-0.130905,1.402313-0.234406c0.347687-0.205093,0.660187-0.52739,0.921906-0.996094
			c0.539093-1.054703,1.128876-2.519501,1.777374-4.453094c0.318298-0.892609,0.527313-1.44931,0.625-1.625
			c0.25-0.615311,0.484314-1.289108,0.718719-1.933609l1.449188-4.029297c0.195313-0.658203,0.773499-2.109406,1.613312-4.365295
			c0.203094-0.599609,0.496094-1.361298,0.789093-2.28511l0.455109-0.058594l0.540985,0.029297
			c0.441406,0.865204,0.820313,1.816406,1.158203,2.8125c0.18161,0.513702,0.468689,1.289001,0.892609,2.359406l2.355408,6.298798
			l1.234375,3.427704c0.648407,1.947296,1.070313,3.119202,1.289124,3.574188c0.199188,0.453201,0.380798,0.746109,0.55658,0.863312
			c0.058594,0.058594,0.240204,0.162094,0.591797,0.205093c0.320313,0.1035,0.574219,0.132797,0.697327,0.175797
			c0.443298,0.1465,0.794891,0.25,0.982391,0.322205c0.013702,0.162201,0.058594,0.234406,0.058594,0.279297
			c0,0.058609-0.011688,0.130905-0.058594,0.234406c-0.343811,0.029297-0.566406,0.029297-0.695313,0.029297
			c-0.515686,0-1.429688-0.029297-2.753906-0.044891l-1.542999-0.029312l-1.855499,0.029312
			c-0.136688,0-0.228485-0.013702-0.359283-0.029312c-0.132904,0-0.234406-0.029297-0.32431-0.029297h-0.365204
			c-0.103485,0-0.228485-0.042999-0.292999-0.101593c0-0.132797,0.029297-0.263611,0.058594-0.41011
			c0.150421-0.044891,0.263702-0.087891,0.365326-0.1035l1.593689-0.101593c0.417999-0.015594,0.75-0.087906,0.976593-0.162094
			c0.046814-0.189514,0.066406-0.322311,0.066406-0.423813c0-0.191391-0.125-0.644592-0.398499-1.42189
			c-0.1875-0.511703-0.343689-0.980499-0.49411-1.449203c-0.111298-0.468796-0.669891-2.0215-1.615204-4.556702
			c-0.421875-0.087906-0.792999-0.101501-1.093781-0.101501l-3.296906,0.013596l-0.960907-0.013596
			c-0.343689,0-0.722687,0.029297-1.164093,0.087906c-0.117096,0.306595-0.203094,0.511703-0.247986,0.658203l-1.347717,4.218689
			c-0.579987,1.611298-0.878906,2.490204-0.878906,2.666c0,0.058609,0.072296,0.234406,0.162109,0.425812
			c0.189514,0.087891,0.496094,0.160187,0.863312,0.175797l2.066376,0.160095
			c0.105499,0.117203,0.164124,0.191498,0.164124,0.279297c0,0.058609-0.003906,0.117203-0.033203,0.234406
			c-0.455109,0-0.814514,0-1.06842,0c-0.8125,0-1.74408-0.015594-2.843689-0.074203
			c-0.511688,0-0.847687-0.029297-1.074188-0.029297c-0.228607,0-0.593811,0.029297-1.132904,0.029297
			c-0.351501,0.029297-0.574219,0.044907-0.736298,0.044907c-0.240204,0-0.560516-0.01561-0.943298-0.044907v-0.101593
			C462.401642,156.44899,462.41333,156.361084,462.440643,156.214584"/>
	</g>
</g>
</svg>
